<svg width="18" height="18" viewBox="0 0 18 18" fill="none" xmlns="http://www.w3.org/2000/svg">
<g clip-path="url(#clip0_4028_2636)">
<path fill-rule="evenodd" clip-rule="evenodd" d="M8.25 0.1875C4.21142 0.1875 0.9375 3.46142 0.9375 7.5C0.9375 11.5386 4.21142 14.8125 8.25 14.8125C12.2886 14.8125 15.5625 11.5386 15.5625 7.5C15.5625 3.46142 12.2886 0.1875 8.25 0.1875ZM2.0625 7.5C2.0625 4.08274 4.83274 1.3125 8.25 1.3125C11.6673 1.3125 14.4375 4.08274 14.4375 7.5C14.4375 10.9173 11.6673 13.6875 8.25 13.6875C4.83274 13.6875 2.0625 10.9173 2.0625 7.5Z" fill="#2B2B2B"/>
<path d="M14.6478 13.1023C14.4281 12.8827 14.072 12.8826 13.8523 13.1023C13.6326 13.322 13.6326 13.6781 13.8523 13.8978L16.8522 16.8978C17.0719 17.1174 17.428 17.1174 17.6477 16.8978C17.8674 16.6781 17.8674 16.322 17.6477 16.1023L14.6478 13.1023Z" fill="#2B2B2B"/>
</g>
<defs>
<clipPath id="clip0_4028_2636">
<rect width="18" height="18" fill="white"/>
</clipPath>
</defs>
</svg>